<?xml version="1.0" standalone="no"?>
<!DOCTYPE svg PUBLIC "-//W3C//DTD SVG 20010904//EN"
 "http://www.w3.org/TR/2001/REC-SVG-20010904/DTD/svg10.dtd">
<svg version="1.0" xmlns="http://www.w3.org/2000/svg"
 width="700.000000pt" height="700.000000pt" viewBox="0 0 700.000000 700.000000"
 preserveAspectRatio="xMidYMid meet">
<metadata>
Created by potrace 1.14, written by Peter Selinger 2001-2017
</metadata>
<g transform="translate(0.000000,700.000000) scale(0.100000,-0.100000)"
fill="#000000" stroke="none">
<path d="M1195 6994 c-223 -45 -374 -123 -510 -263 -132 -136 -222 -325 -241
-506 -8 -75 -8 -5395 -1 -5450 4 -22 9 -51 11 -65 3 -14 8 -38 12 -55 14 -69
97 -243 139 -292 5 -7 33 -39 60 -71 97 -114 244 -207 412 -259 l88 -28 2699
0 2699 0 1 3045 c1 1675 -2 3052 -5 3060 -6 13 -40 15 -221 15 l-213 0 0
-2840 c1 -1562 -2 -2842 -6 -2845 -4 -3 -1053 -5 -2331 -4 -1833 1 -2336 4
-2383 14 -228 48 -412 207 -491 425 -93 256 -11 550 204 729 62 51 194 114
277 131 60 13 366 15 2182 15 l2111 0 0 2625 1 2625 -2237 -1 c-1230 -1 -2246
-3 -2257 -5z"/>
<path d="M1509 1310 c-69 -8 -138 -55 -168 -115 -63 -121 -1 -271 125 -308 35
-10 475 -12 2131 -12 l2088 0 1 218 1 217 -66 0 c-699 4 -4079 4 -4112 0z"/>
</g>
</svg>
